# xmcd
#
# Track frame offsets:
#	150
#	9924
#	20764
#	39046
#	55828
#	72569
#	89435
#	104070
#	125678
#	137277
#	153739
#	167165
#	183009
#	200532
#	210411
#	225799
#	246220
#	261600
#	278973
#	304195
#	329136
#
# Disc length: 4588 seconds
#
# Revision: 0
# Processed by: cddbd v1.5.2PL0 Copyright (c) Steve Scherf et al.
# Submitted via: EasyCDDAExtractor 2010.6.0.0
#
DISCID=2e11ea15
DTITLE=Emmylou Harris - Songbird: Rare Tracks and Forgotten Gems - Disc # 1
DYEAR=1900
DGENRE=Country
TTITLE0=Clocks
TTITLE1=The Angels Rejoiced Last Night
TTITLE2=The Old Country Baprizing
TTITLE3=Coat Of any Colors
TTITLE4=For No One
TTITLE5=Ooh! Las Vegas
TTITLE6=Satan's Lost CRown
TTITLE7=Tulsa Queen
TTITLE8=My Songbird
TTITLE9=Green Rolling Hills
TTITLE10=Green Paper KJid
TTITLE11=Sorrow In The Wind
TTITLE12=Rough And Rocky
TTITLE13=Jordan
TTITLE14=The Darkest Hour Is Just Before Dawn
TTITLE15=Ashes By Now
TTITLE16=How High The Moon
TTITLE17=Spanish Johnny
TTITLE18=The Last Cheater's Waltz
TTITLE19=Racing In The Streets
TTITLE20=Like An Old-Dashioned Waltz
EXTD=
EXTT0=
EXTT1=
EXTT2=
EXTT3=
EXTT4=
EXTT5=
EXTT6=
EXTT7=
EXTT8=
EXTT9=
EXTT10=
EXTT11=
EXTT12=
EXTT13=
EXTT14=
EXTT15=
EXTT16=
EXTT17=
EXTT18=
EXTT19=
EXTT20=
PLAYORDER=
